<svg width="10" height="27" viewBox="0 0 10 27" fill="none" xmlns="http://www.w3.org/2000/svg">
<path d="M7.012 6.056C6.22 6.056 5.548 5.78 4.996 5.228C4.444 4.676 4.168 4.004 4.168 3.212C4.168 2.42 4.444 1.748 4.996 1.196C5.548 0.619998 6.22 0.331998 7.012 0.331998C7.804 0.331998 8.476 0.619998 9.028 1.196C9.604 1.748 9.892 2.42 9.892 3.212C9.892 4.004 9.604 4.676 9.028 5.228C8.476 5.78 7.804 6.056 7.012 6.056ZM4.564 26.216C3.412 26.216 2.476 25.856 1.756 25.136C1.06 24.416 0.712 23.336 0.712 21.896C0.712 21.296 0.808 20.516 1 19.556L3.448 8H8.632L6.04 20.24C5.944 20.6 5.896 20.984 5.896 21.392C5.896 21.872 6.004 22.22 6.22 22.436C6.46 22.628 6.844 22.724 7.372 22.724C7.804 22.724 8.188 22.652 8.524 22.508C8.428 23.708 7.996 24.632 7.228 25.28C6.484 25.904 5.596 26.216 4.564 26.216Z" fill="black"/>
</svg>
