<svg width="20" height="21" viewBox="0 0 20 21" fill="none" xmlns="http://www.w3.org/2000/svg">
<g opacity="0.5">
<path fill-rule="evenodd" clip-rule="evenodd" d="M10 20.3336C15.5229 20.3336 20 15.8565 20 10.3336C20 4.81077 15.5229 0.333618 10 0.333618C4.47714 0.333618 0 4.81077 0 10.3336C0 15.8565 4.47714 20.3336 10 20.3336ZM10 18.3336C14.4183 18.3336 18 14.7519 18 10.3336C18 5.91534 14.4183 2.33362 10 2.33362C5.58173 2.33362 2 5.91534 2 10.3336C2 14.7519 5.58173 18.3336 10 18.3336Z" fill="white"/>
<path d="M14 9.33362C14.5523 9.33362 15 9.78133 15 10.3336C15 10.8859 14.5523 11.3336 14 11.3336H6C5.44772 11.3336 5 10.8859 5 10.3336C5 9.78133 5.44772 9.33362 6 9.33362H14Z" fill="white"/>
<path d="M9 6.33362C9 5.78133 9.44772 5.33362 10 5.33362C10.5523 5.33362 11 5.78133 11 6.33362V14.3336C11 14.8859 10.5523 15.3336 10 15.3336C9.44772 15.3336 9 14.8859 9 14.3336V6.33362Z" fill="white"/>
</g>
</svg>
